<?xml version="1.0" encoding="UTF-8"?>
<svg width="46px" height="46px" viewBox="0 0 46 46" version="1.1" xmlns="http://www.w3.org/2000/svg" xmlns:xlink="http://www.w3.org/1999/xlink">
    <title>Icons / uil:arrow-left</title>
    <defs>
        <path d="M2.5462759,21.1470528 L12.1296092,11.5637195 C12.6157882,11.0775405 13.3244094,10.887666 13.9885421,11.0656199 C14.6526749,11.2435737 15.1714216,11.7623205 15.3493755,12.4264532 C15.5273293,13.090586 15.3374548,13.7992072 14.8512759,14.2853861 L8.5262759,20.5912195 L41.5992619,20.5912195 C42.6578077,20.5912195 43.5159286,21.4493404 43.5159286,22.5078861 C43.5159286,23.5664319 42.6578077,24.4245528 41.5992619,24.4245528 L8.5262759,24.4245528 L14.8512759,30.7303861 C15.2141251,31.0902721 15.4182227,31.5801642 15.4182227,32.0912195 C15.4182227,32.6022747 15.2141251,33.0921668 14.8512759,33.4520528 C14.4913899,33.814902 14.0014978,34.0189996 13.4904426,34.0189996 C12.9793873,34.0189996 12.4894952,33.814902 12.1296092,33.4520528 L2.5462759,23.8687195 C2.37178136,23.6864373 2.23499848,23.4714928 2.1437759,23.2362195 C1.9520747,22.7695852 1.9520747,22.2461871 2.1437759,21.7795528 C2.23499848,21.5442794 2.37178136,21.3293349 2.5462759,21.1470528 Z" id="path-1"></path>
    </defs>
    <g id="Icons-/-uil:arrow-left" stroke="none" stroke-width="1" fill="none" fill-rule="evenodd">
        <g id="uil:arrow-right">
            <rect id="ViewBox" x="0" y="0" width="46" height="46"></rect>
            <mask id="mask-2" fill="white">
                <use xlink:href="#path-1"></use>
            </mask>
            <use id="Path" fill="#2F52A0" xlink:href="#path-1"></use>
        </g>
    </g>
</svg>