<?xml version="1.0" encoding="UTF-8"?>
<svg width="46px" height="46px" viewBox="0 0 46 46" version="1.1" xmlns="http://www.w3.org/2000/svg" xmlns:xlink="http://www.w3.org/1999/xlink">
    <title>Icons / uil:arrow-right</title>
    <defs>
        <path d="M42.9696527,21.1470528 L33.3863193,11.5637195 C32.9001404,11.0775405 32.1915192,10.887666 31.5273864,11.0656199 C30.8632537,11.2435737 30.3445069,11.7623205 30.1665531,12.4264532 C29.9885993,13.090586 30.1784738,13.7992072 30.6646527,14.2853861 L36.9896527,20.5912195 L3.91666667,20.5912195 C2.8581209,20.5912195 2,21.4493404 2,22.5078861 C2,23.5664319 2.8581209,24.4245528 3.91666667,24.4245528 L36.9896527,24.4245528 L30.6646527,30.7303861 C30.3018034,31.0902721 30.0977059,31.5801642 30.0977059,32.0912195 C30.0977059,32.6022747 30.3018034,33.0921668 30.6646527,33.4520528 C31.0245387,33.814902 31.5144307,34.0189996 32.025486,34.0189996 C32.5365413,34.0189996 33.0264334,33.814902 33.3863193,33.4520528 L42.9696527,23.8687195 C43.1441472,23.6864373 43.2809301,23.4714928 43.3721527,23.2362195 C43.5638539,22.7695852 43.5638539,22.2461871 43.3721527,21.7795528 C43.2809301,21.5442794 43.1441472,21.3293349 42.9696527,21.1470528 Z" id="path-1"></path>
    </defs>
    <g id="Icons-/-uil:arrow-right" stroke="none" stroke-width="1" fill="none" fill-rule="evenodd">
        <g id="uil:arrow-right">
            <rect id="ViewBox" x="0" y="0" width="46" height="46"></rect>
            <mask id="mask-2" fill="white">
                <use xlink:href="#path-1"></use>
            </mask>
            <use id="Path" fill="#2F52A0" xlink:href="#path-1"></use>
        </g>
    </g>
</svg>