<?xml version="1.0" encoding="UTF-8"?>
<svg width="46px" height="46px" viewBox="0 0 46 46" version="1.1" xmlns="http://www.w3.org/2000/svg" xmlns:xlink="http://www.w3.org/1999/xlink">
    <title>Icons / Burguer Menu</title>
    <g id="Icons-/-Burguer-Menu" stroke="none" stroke-width="1" fill="none" fill-rule="evenodd">
        <rect id="ViewBox" transform="translate(23.000000, 23.000000) rotate(-270.000000) translate(-23.000000, -23.000000) " x="0" y="0" width="46" height="46"></rect>
        <path d="M40,35 C41.1045695,35 42,35.8954305 42,37 C42,38.1045695 41.1045695,39 40,39 L6,39 C4.8954305,39 4,38.1045695 4,37 C4,35.8954305 4.8954305,35 6,35 L40,35 Z M32,21 C33.1045695,21 34,21.8954305 34,23 C34,24.1045695 33.1045695,25 32,25 L6,25 C4.8954305,25 4,24.1045695 4,23 C4,21.8954305 4.8954305,21 6,21 L32,21 Z M40,7 C41.1045695,7 42,7.8954305 42,9 C42,10.1045695 41.1045695,11 40,11 L6,11 C4.8954305,11 4,10.1045695 4,9 C4,7.8954305 4.8954305,7 6,7 L40,7 Z" id="Shape" fill="#2F52A0"></path>
    </g>
</svg>