<?xml version="1.0" encoding="UTF-8"?>
<svg width="24px" height="24px" viewBox="0 0 24 24" version="1.1" xmlns="http://www.w3.org/2000/svg" xmlns:xlink="http://www.w3.org/1999/xlink">
    <title>Icons / uil:plus-closed</title>
    <defs>
        <path d="M17.6568542,16.2426407 L13.4142136,12 L17.6568542,7.75735931 C18.0473785,7.36683502 18.0473785,6.73367004 17.6568542,6.34314575 C17.26633,5.95262146 16.633165,5.95262146 16.2426407,6.34314575 L12,10.5857864 L7.75735931,6.34314575 C7.36683502,5.95262146 6.73367004,5.95262146 6.34314575,6.34314575 C5.95262146,6.73367004 5.95262146,7.36683502 6.34314575,7.75735931 L10.5857864,12 L6.34314575,16.2426407 C5.95262146,16.633165 5.95262146,17.26633 6.34314575,17.6568542 C6.73367004,18.0473785 7.36683502,18.0473785 7.75735931,17.6568542 L12,13.4142136 L16.2426407,17.6568542 C16.633165,18.0473785 17.26633,18.0473785 17.6568542,17.6568542 C18.0473785,17.26633 18.0473785,16.633165 17.6568542,16.2426407 Z" id="path-1"></path>
    </defs>
    <g id="Icons-/-uil:plus-closed" stroke="none" stroke-width="1" fill="none" fill-rule="evenodd">
        <g id="uil:plus">
            <rect id="ViewBox" x="0" y="0" width="24" height="24"></rect>
            <mask id="mask-2" fill="white">
                <use xlink:href="#path-1"></use>
            </mask>
            <use id="Path" fill="#2F52A0" xlink:href="#path-1"></use>
        </g>
    </g>
</svg>