<?xml version="1.0" encoding="UTF-8"?>
<svg width="500px" height="90px" viewBox="0 0 500 90" version="1.1" xmlns="http://www.w3.org/2000/svg" xmlns:xlink="http://www.w3.org/1999/xlink">
    <title>Logo / Horizontal color</title>
    <g id="Logo-/-Horizontal-color" stroke="none" stroke-width="1" fill="none" fill-rule="evenodd">
        <g id="TT-logo" fill="#2F52A0">
            <path d="M188.536635,23.5289939 L181.213287,49.4782047 C181.019612,50.1360862 180.83562,50.8453144 180.661312,51.6058896 L180.388934,52.8292697 C180.242482,53.5347441 180.169256,54.0824834 180.169256,54.4724876 C180.169256,55.6157572 180.537441,56.4330946 181.273811,56.9245 C181.979919,57.425934 182.933164,57.676651 184.133548,57.676651 C185.868556,57.676651 187.149638,57.2253604 187.976793,56.3227792 C188.712042,55.5115703 189.299842,54.4626446 189.740195,53.1760021 L189.898415,52.6823681 L198.129616,23.5289939 L217.16427,23.5289939 L207.994953,55.9467036 C207.208147,58.7346768 206.048113,60.9710726 204.51485,62.6558909 C202.991674,64.3407092 201.070052,65.634409 198.749983,66.5369903 C196.595513,67.3735494 194.127427,67.9446618 191.345726,68.2503276 L190.579305,68.3271097 C187.432081,68.6580562 183.876323,68.8235294 179.912031,68.8235294 C178.711648,68.8235294 177.390217,68.7834147 175.947739,68.7031852 C174.464913,68.6630705 172.997217,68.5176547 171.544652,68.2669376 C170.061825,68.066364 168.639522,67.7404319 167.277742,67.2891413 C166.042053,66.894262 164.937656,66.3726923 163.964551,65.7244321 L163.555544,65.4388497 C162.435859,64.6967274 161.568355,63.7490171 160.953032,62.5957188 C160.287273,61.4524492 159.954394,60.0584626 159.954394,58.413759 C159.954394,58.0025831 159.974568,57.5914072 160.014917,57.1802313 L160.049416,56.9455602 L160.143833,56.4040115 C160.180954,56.2074493 160.223724,55.9948413 160.272142,55.7661874 C160.352841,55.1845239 160.494062,54.4825163 160.695807,53.6601645 L161.512875,50.5913883 L165.039438,38.0749597 L152.809097,38.075595 L145.122608,67.5298296 L125.860991,67.5298296 L133.547481,38.075595 L121.019108,38.075595 L124.9834,23.5289939 L188.536635,23.5289939 Z M352.248235,22.2352941 C355.06258,22.2352941 357.892055,22.3205379 360.736662,22.4910255 C363.591355,22.6915991 366.173693,23.2431765 368.483675,24.1457578 C370.803744,25.0984824 372.685017,26.5175407 374.127495,28.4029326 C375.569973,30.2883246 376.291212,32.9609679 376.291212,36.4208627 C376.291212,38.0154229 376.124772,39.8205854 375.791892,41.8363502 C375.4691,43.8521149 374.994999,45.9280518 374.369589,48.0641608 C373.713917,50.2403844 372.932155,52.4166081 372.024302,54.5928318 C371.066013,56.7690554 369.99172,58.7798059 368.801423,60.6250831 C367.60104,62.5606184 366.027428,64.0599062 364.080587,65.1229463 C362.103485,66.2361298 359.954899,67.0584816 357.63483,67.5900017 C355.324849,68.1215218 352.9493,68.4524682 350.508184,68.5828411 C348.036806,68.7433 345.681431,68.8235294 343.44206,68.8235294 C340.441102,68.8235294 337.633219,68.7467473 335.018413,68.5931832 L333.909603,68.522669 C330.974211,68.3521814 328.432223,67.7955897 326.283637,66.8528937 C324.135051,65.9503124 322.460567,64.5513115 321.260183,62.6558909 C320.019451,60.770499 319.399084,58.10287 319.399084,54.6530039 C319.399084,53.2489886 319.526515,51.722122 319.781376,50.072404 L319.898404,49.3578605 C320.190934,47.4624399 320.644861,45.4867899 321.260183,43.4309104 C321.835157,41.4251743 322.556396,39.4144238 323.4239,37.398659 C324.291404,35.423009 325.284999,33.5526601 326.404684,31.7876123 C327.726115,29.6916181 329.294683,28.0067997 331.110389,26.7331573 C332.885746,25.4595149 334.89311,24.4967616 337.132481,23.8448973 C339.321416,23.1830044 341.696965,22.7517712 344.259128,22.5511976 C346.770855,22.3405953 349.433891,22.2352941 352.248235,22.2352941 Z M454.5833,22.2352941 C459.067022,22.2352941 463.168491,23.2581895 466.887707,25.3039803 L466.887707,25.3039803 L463.509419,32.5262416 L463.002534,32.2911466 C459.973588,30.9186997 457.167177,30.2324762 454.5833,30.2324762 C452.868328,30.2324762 451.463291,30.6974287 450.368189,31.6273336 C449.273086,32.5572385 448.725535,33.7867794 448.725535,35.3159563 C448.725535,36.5764941 449.066463,37.6768815 449.748319,38.6171187 C450.430176,39.5573559 451.959187,40.8023952 454.335352,42.3522367 C456.835492,44.005401 458.705431,45.8290478 459.94517,47.8231772 C461.184909,49.8173066 461.804778,52.1472349 461.804778,54.8129623 C461.804778,59.1318539 460.275767,62.5466714 457.217745,65.0574146 C454.159723,67.5681578 450.016929,68.8235294 444.789364,68.8235294 C440.222994,68.8235294 436.545102,67.8936245 433.75569,66.0338147 L433.75569,66.0338147 L433.75569,57.5406833 L434.232841,57.8031397 C438.038938,59.8599405 441.578441,60.888341 444.851351,60.888341 C447.16553,60.888341 448.973483,60.4492192 450.275208,59.5709757 C451.576934,58.6927322 452.227797,57.489022 452.227797,55.959845 C452.227797,55.0712692 452.088326,54.2911823 451.809385,53.6195844 C451.530444,52.9479864 451.132694,52.3228836 450.616136,51.7442762 C450.099579,51.1656687 448.818515,50.1117764 446.772946,48.5825995 C443.921547,46.5368087 441.917303,44.5116825 440.760214,42.5072209 C439.603124,40.5027592 439.02458,38.3433134 439.02458,36.0288834 C439.02458,33.363156 439.665111,30.9815663 440.946175,28.8841141 C442.227238,26.786662 444.050687,25.1541623 446.416522,23.986615 C448.782356,22.8190677 451.504616,22.2352941 454.5833,22.2352941 Z M411.262886,22.8862275 L409.558245,30.8834097 L398.617551,30.8834097 L390.74521,68.2035928 L381.292203,68.2035928 L389.164544,30.8834097 L378.254843,30.8834097 L379.959484,22.8862275 L411.262886,22.8862275 Z M438.982316,22.8862275 L437.308669,30.7594223 L421.440013,30.7594223 L419.363451,40.7094047 L434.147335,40.7094047 L432.442694,48.5825995 L417.65881,48.5825995 L415.179333,60.2684044 L431.047988,60.2684044 L429.374341,68.2035928 L404.052678,68.2035928 L413.62966,22.8862275 L438.982316,22.8862275 Z M500,22.8862275 L498.295359,30.8834097 L487.354665,30.8834097 L479.482325,68.2035928 L470.029317,68.2035928 L477.901658,30.8834097 L466.991957,30.8834097 L468.696598,22.8862275 L500,22.8862275 Z M256.598874,23.5289939 C258.707111,23.5289939 260.421945,23.7345819 261.743375,24.1457578 C263.064806,24.5970484 264.113881,25.2338696 264.890599,26.0562214 C265.637056,26.9186879 266.15655,27.9466277 266.449081,29.1400406 C266.691175,30.3735683 266.812222,31.7725693 266.812222,33.3370434 C266.812222,36.1250166 266.464211,38.5268856 265.768191,40.5426504 C265.021734,42.5584152 264.007964,44.2231761 262.726883,45.5369333 C261.445801,46.8908051 259.937756,47.8736158 258.202748,48.4853653 C256.660519,49.0737146 255.018662,49.4005753 253.277178,49.4659474 L252.619452,49.4782047 L249.275526,49.4782047 L261.22347,66.2894535 L272.974011,23.5289939 L310.589391,23.5289939 C313.232252,23.5289939 315.320314,23.7797109 316.853577,24.2811449 C318.376753,24.812665 319.531744,25.4695436 320.31855,26.2517807 C321.065007,27.0741325 321.544151,27.9566563 321.755984,28.8993523 C321.91738,29.8420483 321.998078,30.7646869 321.998078,31.6672681 C321.998078,34.7861878 321.544151,37.2733005 320.636298,39.1286064 C319.728445,41.0139984 318.528061,42.4480997 317.035147,43.4309104 C315.511972,44.4237497 313.797138,45.060571 311.890647,45.341374 C310.230572,45.6250424 308.537148,45.7871386 306.810375,45.8276627 L305.944209,45.8377937 L305.944209,45.9581379 C307.305989,45.9982526 308.667768,46.1035537 310.029548,46.2740413 C311.350978,46.4345002 312.571536,46.785504 313.691222,47.3270527 C314.770558,47.8585728 315.658237,48.6157382 316.354258,49.5985489 C317.020017,50.5813596 317.352896,51.8951167 317.352896,53.5398203 C317.352896,56.7891128 316.772879,59.3363977 315.612844,61.1816749 C314.45281,63.0269521 312.985114,64.425953 311.209757,65.3786777 C309.394051,66.3213736 307.411905,66.9155729 305.263319,67.1612756 C303.472831,67.3660278 301.752393,67.4854666 300.102006,67.519592 L299.12018,67.5298296 L239.985163,67.5298296 L230.815847,52.2461205 L226.851555,67.5298296 L207.937949,67.5298296 L220.027526,23.5289939 L256.598874,23.5289939 Z" id="Combined-Shape"></path>
            <path d="M96.6029724,30.0048836 L91.159799,49.8391665 L74.0408109,49.8391665 L63.4868716,90 L37.0396969,90 L47.5936362,49.8391665 L40.9844301,49.8354545 L46.1971131,30.0027273 L96.6029724,30.0048836 Z M66.2114262,0 L60.7682528,19.8342829 L43.6492646,19.8342829 L33.0953254,59.9951164 L6.64815073,59.9951164 L17.20209,19.8342829 L0,19.8342829 L5.44317341,0 L66.2114262,0 Z" id="Shape"></path>
        </g>
    </g>
</svg>